<svg xmlns="http://www.w3.org/2000/svg" viewBox="0 0 40 40" aria-hidden="true" focusable="false"><g transform="translate(-336 -285)"><path d="M356 294.069c3.56 0 3.982.014 5.388.078a7.38 7.38 0 012.476.459 4.416 4.416 0 012.53 2.53 7.38 7.38 0 01.459 2.476c.064 1.406.078 1.828.078 5.388s-.014 3.982-.078 5.388a7.38 7.38 0 01-.459 2.476 4.416 4.416 0 01-2.53 2.53 7.38 7.38 0 01-2.476.459c-1.406.064-1.827.078-5.388.078s-3.982-.014-5.388-.078a7.38 7.38 0 01-2.476-.459 4.416 4.416 0 01-2.53-2.53 7.38 7.38 0 01-.459-2.476c-.064-1.406-.078-1.828-.078-5.388s.014-3.982.078-5.388a7.38 7.38 0 01.459-2.476 4.416 4.416 0 012.53-2.53 7.38 7.38 0 012.476-.459c1.406-.064 1.828-.078 5.388-.078m0-2.4c-3.621 0-4.075.015-5.5.08a9.787 9.787 0 00-3.237.62 6.818 6.818 0 00-3.9 3.9 9.787 9.787 0 00-.62 3.237c-.065 1.422-.08 1.876-.08 5.5s.015 4.075.08 5.5a9.787 9.787 0 00.62 3.237 6.818 6.818 0 003.9 3.9 9.787 9.787 0 003.237.62c1.422.065 1.876.08 5.5.08s4.075-.015 5.5-.08a9.787 9.787 0 003.237-.62 6.818 6.818 0 003.9-3.9 9.787 9.787 0 00.62-3.237c.065-1.422.08-1.876.08-5.5s-.015-4.075-.08-5.5a9.787 9.787 0 00-.62-3.237 6.818 6.818 0 00-3.9-3.9 9.787 9.787 0 00-3.237-.62c-1.422-.065-1.876-.08-5.5-.08z" fill="#fff"></path><path d="M356 298.153a6.847 6.847 0 106.847 6.847 6.847 6.847 0 00-6.847-6.847zm0 11.291a4.444 4.444 0 114.444-4.444 4.444 4.444 0 01-4.444 4.444z" fill="#fff"></path><circle cx="1.6" cy="1.6" r="1.6" transform="translate(361.517 296.283)" fill="#fff"></circle></g></svg>