<svg xmlns="http://www.w3.org/2000/svg" x="0px" y="0px" width="100" height="100" viewBox="0,0,256,256">
<g fill="none" fill-rule="nonzero" stroke="none" stroke-width="1" stroke-linecap="butt" stroke-linejoin="miter" stroke-miterlimit="10" stroke-dasharray="" stroke-dashoffset="0" font-family="none" font-weight="none" font-size="none" text-anchor="none" style="mix-blend-mode: normal"><g transform="scale(5.33333,5.33333)"><path d="M24,4c-11.046,0 -20,8.954 -20,20c0,11.046 8.954,20 20,20c11.046,0 20,-8.954 20,-20c0,-11.046 -8.954,-20 -20,-20z" fill="#04ddb2"></path><path d="M36,17.12c-0.882,0.391 -1.999,0.758 -3,0.88c1.018,-0.604 2.633,-1.862 3,-3c-0.951,0.559 -2.671,1.156 -3.793,1.372c-2.418,-2.564 -8.207,-1.617 -8.207,3.628v2c-4,0 -7.9,-3.047 -10.327,-6c-2.254,3.807 1.858,6.689 2.327,7c-0.807,-0.025 -2.335,-0.641 -3,-1c0,0.016 0,0.036 0,0.057c0,2.367 1.661,3.974 3.912,4.422c-0.411,0.113 -0.912,0.521 -2.84,0.521c0.626,1.935 3.773,2.958 5.928,3c-2.617,2.029 -7.126,2.079 -8,1.977c8.989,5.289 22.669,0.513 21.982,-12.477c0.968,-0.682 1.36,-1.396 2.018,-2.38" fill="#ffffff"></path></g></g>
</svg>