<svg width="32px" height="32px" viewBox="0 0 32 32" version="1.1" xmlns="http://www.w3.org/2000/svg" xmlns:xlink="http://www.w3.org/1999/xlink">
    <!-- Generator: Sketch 62 (91390) - https://sketch.com -->
    <title>logo copy</title>
    <desc>Created with Sketch.</desc>
    <g id="Page-1" stroke="none" stroke-width="1" fill="none" fill-rule="evenodd">
        <g id="burger" transform="translate(-20.000000, -20.000000)" fill="#00B289" fill-rule="nonzero">
            <g id="logo-copy" transform="translate(20.000000, 20.000000)">
                <g id="bonsai_logo_linear_00b289">
                    <path d="M23.6267923,5.01073171 L13.2150535,5.01073171 L13.2150535,8.91317073 L13.2150535,11.2936585 L13.2150535,13.2995122 L13.2150535,15.0478049 L13.2150535,18.9892683 L18.8963092,18.9892683 L18.8963092,13.3073171 L14.6022462,13.3073171 L14.6022462,8.92097561 L20.9770983,8.92097561 C21.6161422,8.92097561 22.1928403,9.17853659 22.6058808,9.6 C23.0267146,10.0136585 23.2838908,10.5990244 23.2838908,11.2312195 L23.2838908,21.182439 L23.2838908,23.3756098 L21.0939966,23.3756098 L11.1342643,23.3756098 C10.4952205,23.3756098 9.91852236,23.1180488 9.50548182,22.6965854 C9.08464807,22.275122 8.82747188,21.697561 8.82747188,21.0653659 L8.82747188,11.3014634 L8.82747188,11.1141463 L8.82747188,8.92097561 L8.82747188,3.12195122 L8.82747188,0.624390244 L23.6267923,0.624390244 C25.8166865,0.624390244 27.7961638,1.51414634 29.2379091,2.95804878 C30.6718612,4.39414634 31.5680812,6.38439024 31.5680812,8.5697561 L31.5680812,25.0458537 L31.5680812,28.1521951 L31.5680812,29.5258537 C31.5680812,30.7043902 30.6095154,31.6643902 29.4327396,31.6643902 L29.0664583,31.6643902 L27.944235,31.6643902 L8.47677708,31.6643902 C6.2868829,31.6643902 4.3074056,30.7746341 2.86566032,29.3307317 C1.42391504,27.8946341 0.535488215,25.9043902 0.535488215,23.7190244 L0.535488215,8.91317073 L2.82669423,8.91317073 L4.91527658,8.91317073 L7.43248591,8.91317073 L7.43248591,13.2995122 L4.91527658,13.2995122 L4.91527658,23.7190244 C4.91527658,24.6946341 5.31273068,25.5843902 5.95956776,26.2321951 C6.60640483,26.88 7.49483165,27.2780488 8.46898386,27.2780488 L27.1727064,27.2780488 L27.1727064,8.5697561 C27.1727064,7.59414634 26.7752523,6.70439024 26.1284152,6.05658537 C25.4893714,5.41658537 24.6087378,5.01073171 23.6267923,5.01073171 L23.6267923,5.01073171 Z" id="Path"/>
                </g>
            </g>
        </g>
    </g>
</svg>