<svg xmlns="http://www.w3.org/2000/svg" x="0px" y="0px" width="100" height="100" viewBox="0,0,256,256">
<g fill="none" fill-rule="nonzero" stroke="none" stroke-width="1" stroke-linecap="butt" stroke-linejoin="miter" stroke-miterlimit="10" stroke-dasharray="" stroke-dashoffset="0" font-family="none" font-weight="none" font-size="none" text-anchor="none" style="mix-blend-mode: normal"><g transform="scale(0.5,0.5)"><path d="M504.1,256c0,-137 -111.1,-248.1 -248.1,-248.1c-137,0 -248.1,111.1 -248.1,248.1c0,137 111.1,248.1 248.1,248.1c137,0 248.1,-111.1 248.1,-248.1z" fill="#04ddb2"></path><path d="M412.1,345.9c0,7.5 -6.1,13.6 -13.6,13.6h-285c-7.5,0 -13.6,-6.1 -13.6,-13.6v-179.8c0,-7.5 6.1,-13.6 13.6,-13.6h285.1c7.5,0 13.6,6.1 13.6,13.6v179.8z" fill="#ffffff"></path><path d="M343.4,247.1l-123.1,-75.6c-3.4,-2.1 -7.8,-2.2 -11.2,-0.2c-3.5,2 -5.7,5.7 -5.7,9.7v150.6c0,4 2.2,7.7 5.7,9.7c1.7,0.9 3.5,1.4 5.4,1.4c2,0 4,-0.6 5.8,-1.6l123.1,-75c3.3,-2 5.3,-5.6 5.3,-9.5c0,-3.9 -2,-7.5 -5.3,-9.5z" fill="#04ddb2"></path></g></g>
</svg>